<?xml version="1.0" encoding="UTF-8" standalone="no"?>
<svg
   width="521.55731"
   height="533.36749"
   version="1.1"
   id="svg5"
   sodipodi:docname="minimalist-logo-for-a-website-creator-app.svg"
   inkscape:version="1.3.2 (091e20e, 2023-11-25)"
   xmlns:inkscape="http://www.inkscape.org/namespaces/inkscape"
   xmlns:sodipodi="http://sodipodi.sourceforge.net/DTD/sodipodi-0.dtd"
   xmlns="http://www.w3.org/2000/svg"
   xmlns:svg="http://www.w3.org/2000/svg">
  <sodipodi:namedview
     id="namedview5"
     pagecolor="#ffffff"
     bordercolor="#000000"
     borderopacity="0.25"
     inkscape:showpageshadow="2"
     inkscape:pageopacity="0.0"
     inkscape:pagecheckerboard="0"
     inkscape:deskcolor="#d1d1d1"
     showguides="false"
     inkscape:zoom="0.22692308"
     inkscape:cx="257.79661"
     inkscape:cy="268.81356"
     inkscape:window-width="1312"
     inkscape:window-height="449"
     inkscape:window-x="0"
     inkscape:window-y="38"
     inkscape:window-maximized="0"
     inkscape:current-layer="svg5" />
  <path
     fill="#fccc4d"
     d="m 286.91986,336.55861 c 3.60572,-0.31089 7.55788,0.78841 10.62207,2.67914 q 0.78333,0.49072 1.5128,1.05662 0.73049,0.56692 1.40104,1.20191 0.67054,0.636 1.27505,1.335 0.60451,0.69899 1.13688,1.45488 0.53136,0.75487 0.98652,1.55953 0.45414,0.80465 0.82701,1.64995 0.37286,0.84631 0.65937,1.72412 0.28752,0.87882 0.48564,1.78101 0.10261,0.4765 0.18084,0.95604 0.0782,0.48056 0.13309,0.96518 0.0549,0.48361 0.0854,0.96924 0.0295,0.48564 0.0356,0.97331 0.006,0.48666 -0.0122,0.97331 -0.0173,0.48666 -0.0599,0.97128 -0.0427,0.48462 -0.10973,0.96721 -0.066,0.48259 -0.15646,0.96112 -0.0904,0.47751 -0.20522,0.95096 -0.11379,0.47344 -0.25197,0.94079 -0.13715,0.46634 -0.2987,0.92658 -0.16052,0.45922 -0.34441,0.91031 -0.18288,0.4511 -0.38912,0.89204 -0.20625,0.44093 -0.43281,0.87171 -0.22758,0.43077 -0.4765,0.84936 -0.24891,0.41858 -0.51814,0.82396 c -3.33242,4.9468 -7.77327,6.57643 -13.36014,7.55279 -3.77538,0.0112 -7.43088,-0.73963 -10.69929,-2.69539 -4.19193,-2.50948 -7.02956,-6.79285 -8.18575,-11.49379 -1.15822,-4.71313 -0.46125,-9.52278 2.09089,-13.6629 3.3507,-5.4365 8.15121,-7.56295 14.06827,-9.04527 z"
     id="path1"
     style="stroke-width:1.01598" />
  <path
     fill="#f62f8e"
     d="m 24.747241,54.768434 q 14.229816,-0.663435 28.463696,-0.09652 c 59.226553,2.631388 124.452473,26.038551 165.203423,70.431796 -6.17309,5.17236 -12.72718,9.89565 -18.89621,15.08629 -11.508,9.68026 -21.3498,20.21394 -30.67853,31.98102 -6.60082,8.52915 -12.23037,17.90665 -17.8274,27.1033 -6.30924,-10.21365 -10.79276,-21.52557 -17.30519,-31.72499 q -2.34996,-3.69309 -4.8127,-7.31201 -2.46273,-3.61791 -5.03519,-7.15961 -2.57348,-3.54171 -5.25363,-7.00214 -2.68016,-3.46043 -5.46598,-6.83653 -2.7848,-3.37711 -5.67323,-6.66584 -2.88843,-3.28974 -5.87541,-6.48907 -2.987999,-3.1983 -6.072514,-6.30415 -3.084516,-3.10585 -6.263517,-6.11519 -3.179001,-3.00933 -6.448425,-5.9191 -3.269424,-2.91078 -6.627238,-5.71895 -3.357814,-2.808167 -6.799954,-5.51169 -3.44214,-2.704539 -6.965559,-5.300368 Q 58.889249,88.61784 55.2876,86.13072 51.685951,83.643601 48.009119,81.26824 44.332287,78.892879 40.584337,76.632323 36.836387,74.370752 33.020366,72.226018 C 22.344448,66.345526 11.256042,61.490158 0,56.847129 8.2558535,55.604585 16.417221,55.112851 24.747241,54.768434 Z"
     id="path2"
     style="stroke-width:1.01598" />
  <path
     fill="#02ab57"
     d="m 469.70483,102.79076 c 8.45193,11.15038 15.05784,23.71805 21.20451,36.25423 q 1.21816,2.44445 2.38959,4.91125 1.17142,2.4668 2.29713,4.95595 1.12571,2.48813 2.20468,4.99659 1.07897,2.50947 2.11019,5.03824 1.03223,2.52878 2.0157,5.07584 0.98449,2.54808 1.92122,5.11343 0.93673,2.56535 1.8247,5.14797 0.88797,2.58262 1.72818,5.1815 0.84022,2.59887 1.63065,5.21299 0.79145,2.6131 1.53413,5.24144 0.74166,2.62834 1.43456,5.2709 0.6929,2.64155 1.33602,5.29529 0.64311,2.65476 1.23746,5.31967 0.59333,2.66593 1.13688,5.34304 0.54355,2.67609 1.03732,5.36234 0.49376,2.68626 0.93673,5.38063 0.44297,2.6954 0.83615,5.39791 0.39217,2.7025 0.73456,5.41212 0.34238,2.70962 0.63397,5.42533 0.29158,2.71572 0.53237,5.4355 0.23977,2.72079 0.42976,5.44565 0.18999,2.72384 0.32816,5.45175 0.13919,2.72791 0.22657,5.45683 0.0884,2.72994 0.12496,5.46089 0.0366,2.73095 0.0223,5.46191 -0.0142,2.73095 -0.0803,5.46089 -0.065,2.73096 -0.18186,5.45886 -0.11684,2.72892 -0.28346,5.4548 -0.16763,2.72587 -0.38607,5.4487 -0.21844,2.72181 -0.48767,5.43956 -0.26924,2.71876 -0.58927,5.43041 -0.32003,2.71267 -0.69087,5.41822 -0.44804,3.15563 -0.97432,6.30009 -0.52526,3.14344 -1.12875,6.27368 -0.6035,3.13023 -1.28319,6.24421 -0.6807,3.11398 -1.43659,6.21069 -0.75691,3.0967 -1.59001,6.17309 -0.83311,3.07639 -1.74139,6.13246 -0.90829,3.05505 -1.89176,6.08673 -0.98346,3.0327 -2.0411,6.03899 -1.05764,3.0073 -2.18944,5.98717 -1.1318,2.97987 -2.33675,5.93129 -1.20394,2.95142 -2.48102,5.87135 -1.27709,2.92094 -2.62631,5.80937 -1.34821,2.88742 -2.76855,5.74232 -1.41932,2.85389 -2.90875,5.67222 -1.48943,2.81833 -3.04692,5.59805 -1.55852,2.78073 -3.1851,5.52286 -1.62658,2.74112 -3.32022,5.44159 -1.69364,2.70048 -3.45332,5.35828 -1.75968,2.65781 -3.58336,5.27192 -1.8247,2.6131 -3.71341,5.1815 -1.8887,2.5684 -3.83939,5.08904 -1.95169,2.52065 -3.96435,4.99253 -2.01266,2.47086 -4.08525,4.89296 -2.0726,2.42108 -4.20515,4.79034 -2.13152,2.37029 -4.32197,4.68672 -2.18944,2.31644 -4.43577,4.57801 -2.24634,2.26157 -4.54753,4.46726 -2.30119,2.20569 -4.65624,4.35347 -2.35504,2.1488 -4.76189,4.23766 -2.40686,2.08987 -4.86452,4.1198 -2.45867,2.02891 -4.96611,3.99788 -2.50642,1.96795 -5.06161,3.87393 C 363.67106,520.71109 297.1772,540.37131 229.9244,531.11066 q -5.5889,-0.72541 -11.1392,-1.7038 -5.5503,-0.97839 -11.0498,-2.20874 -5.4995,-1.22934 -10.93804,-2.7086 -5.43854,-1.47927 -10.80393,-3.20441 -5.36438,-1.72411 -10.64646,-3.69105 -5.28106,-1.96795 -10.46764,-4.17263 -5.18556,-2.20569 -10.26648,-4.64506 -5.08091,-2.43835 -10.04499,-5.10632 c 12.66724,-0.15849 25.2532,1.4051 37.92755,0.76808 q 4.98236,-0.28142 9.95254,-0.72845 4.97017,-0.44703 9.92206,-1.05865 4.9529,-0.61264 9.88244,-1.38885 4.92851,-0.77722 9.8296,-1.71802 4.90109,-0.93978 9.76763,-2.04314 4.86655,-1.10335 9.69347,-2.36825 4.82794,-1.26489 9.61015,-2.6893 4.78222,-1.4244 9.51466,-3.0073 4.73243,-1.58391 9.40899,-3.32327 4.67757,-1.74037 9.29418,-3.63517 4.61662,-1.89481 9.16719,-3.94201 4.55057,-2.0472 9.03105,-4.24476 4.47945,-2.19858 8.88373,-4.54448 4.40528,-2.34488 8.72828,-4.83606 4.32401,-2.49119 8.56268,-5.12562 4.23867,-2.63342 8.38691,-5.40705 c 10.1344,-6.8538 20.16924,-13.96668 29.52133,-21.86694 45.30052,-38.26383 80.93094,-91.23805 92.23169,-150.05618 q 2.34996,-12.3218 3.36187,-24.82445 c 0.7376,-8.93148 1.54531,-36.46048 0.0823,-44.9368 -0.21641,-1.25575 -0.83412,-2.26055 -1.53718,-3.2999 14.65856,-33.27741 21.82427,-70.53746 13.91385,-106.60272 z"
     id="path3"
     style="stroke-width:1.01598" />
  <defs
     id="defs4">
    <linearGradient
       id="gradient_0"
       gradientUnits="userSpaceOnUse"
       x1="614.94312"
       y1="497.54745"
       x2="488.0687"
       y2="386.72183"
       gradientTransform="matrix(1.01598,0,0,1.01598,-258.59942,-250.24705)">
      <stop
         offset="0"
         stop-color="#D5157E"
         id="stop3" />
      <stop
         offset="1"
         stop-color="#FF3694"
         id="stop4" />
    </linearGradient>
  </defs>
  <path
     fill="url(#gradient_0)"
     d="m 417.40827,0 c 0.20218,0.23672334 0.41554,0.46430286 0.60553,0.71017002 3.97857,5.15406658 6.23202,12.90396198 8.42145,19.02422598 11.05895,30.906111 16.24857,63.830975 12.86129,96.624774 -7.59343,73.52851 -49.70275,133.36567 -119.23338,159.9945 -28.67197,10.98071 -58.39142,16.39386 -82.84707,36.41476 -30.5241,24.98904 -40.64022,53.91298 -44.58019,91.98784 l -2.61716,-5.02808 C 169.0672,362.15826 158.6341,317.54658 163.7587,274.65191 q 0.27026,-2.25345 0.59537,-4.49876 0.32511,-2.24532 0.70509,-4.48251 0.38099,-2.23719 0.81583,-4.46421 0.43586,-2.22703 0.92556,-4.44187 0.4897,-2.21585 1.03427,-4.4185 0.54456,-2.20264 1.14399,-4.39208 0.59841,-2.18842 1.25067,-4.3616 0.65226,-2.17318 1.35735,-4.33011 0.70611,-2.15591 1.46403,-4.29454 0.75893,-2.13864 1.56969,-4.25798 0.81075,-2.11933 1.67433,-4.21834 0.86257,-2.098 1.77695,-4.17467 0.91438,-2.07768 1.87855,-4.13097 0.96518,-2.0533 1.98116,-4.08221 1.01496,-2.02993 2.08073,-4.03344 1.06474,-2.00351 2.17826,-3.98061 1.11453,-1.97608 2.27681,-3.92473 1.16228,-1.94865 2.37231,-3.86885 1.21003,-1.91919 2.4668,-3.80891 1.25778,-1.88871 2.56027,-3.74592 1.3035,-1.85823 2.65171,-3.68293 1.3482,-1.8247 2.74111,-3.61587 1.39291,-1.79117 2.82951,-3.5478 1.43659,-1.75663 2.91687,-3.47668 1.47927,-1.72107 3.00019,-3.40455 1.52194,-1.68348 3.0835,-3.32835 1.56258,-1.64589 3.16478,-3.25216 1.60322,-1.60728 3.24403,-3.17392 1.64182,-1.56664 3.32123,-3.09162 1.67942,-1.52601 3.39642,-3.01035 1.716,-1.48333 3.46856,-2.92501 1.75358,-1.44066 3.54069,-2.83865 c 14.39745,-11.14327 30.51902,-19.99753 47.14249,-27.33392 33.18597,-14.64536 66.4837,-23.94157 95.61794,-46.96368 C 394.69096,62.315133 409.4948,43.39657 414.74132,19.797386 416.20332,13.220948 416.61174,6.655685 417.40827,0 Z"
     id="path4"
     style="fill:url(#gradient_0);stroke-width:1.01598" />
  <path
     fill="#09d06a"
     d="m 144.56786,503.67005 c -6.62013,-2.99104 -12.85012,-7.43595 -18.96327,-11.36475 q -3.12617,-1.96998 -6.19646,-4.02734 -3.06928,-2.05736 -6.07861,-4.20108 -3.01035,-2.14372 -5.95872,-4.37176 -2.94736,-2.22805 -5.83173,-4.53839 -2.883348,-2.31033 -5.700661,-4.70195 -2.817312,-2.39162 -5.565538,-4.86147 -2.748226,-2.47086 -5.425333,-5.01792 -2.677108,-2.54706 -5.281064,-5.16931 -2.603957,-2.62224 -5.132731,-5.31662 -2.527759,-2.69438 -4.979318,-5.45988 -2.45156,-2.76549 -4.822857,-5.59906 -2.372314,-2.83357 -4.662333,-5.73318 -2.291034,-2.8996 -4.498759,-5.86322 -2.207725,-2.96361 -4.330107,-5.98818 -2.122382,-3.02458 -4.159422,-6.10808 -2.036024,-3.0835 -3.983657,-6.22389 C -0.14122122,340.29133 -6.4545209,262.82488 11.365768,184.87483 c 9.306377,5.43854 18.211442,12.74141 26.597341,19.49869 34.902977,28.12334 63.197001,60.75357 83.480031,100.89189 27.87138,55.15553 40.47562,123.11951 20.79812,182.90282 11.19814,-0.88187 22.53139,-2.95853 33.51109,-5.30951 42.50657,-9.10115 82.74547,-26.59734 116.00561,-54.97874 38.5473,-32.89337 63.76595,-78.60028 67.72523,-129.33324 40.85662,-20.41815 75.30647,-47.79576 96.30779,-89.15326 0.70306,1.03935 1.32077,2.04415 1.53718,3.2999 1.46301,8.47632 0.6553,36.00532 -0.0823,44.9368 q -1.01191,12.50265 -3.36187,24.82445 c -11.30075,58.81813 -46.93117,111.79235 -92.23169,150.05618 -9.35209,7.90026 -19.38693,15.01314 -29.52133,21.86694 q -4.14824,2.77363 -8.38691,5.40705 -4.23867,2.63443 -8.56268,5.12562 -4.323,2.49118 -8.72828,4.83708 -4.40428,2.34488 -8.88373,4.54346 -4.48048,2.19756 -9.03105,4.24476 -4.55057,2.0472 -9.16719,3.94201 -4.61661,1.8948 -9.29418,3.63517 -4.67656,1.73936 -9.40899,3.32327 -4.73244,1.5829 -9.51466,3.0073 -4.78221,1.42441 -9.61015,2.6893 -4.82692,1.2649 -9.69347,2.36825 -4.86654,1.10336 -9.76763,2.04314 -4.90109,0.9408 -9.8296,1.71802 -4.92954,0.77621 -9.88244,1.38885 -4.95189,0.61162 -9.92206,1.05865 -4.97018,0.44703 -9.95254,0.72845 c -12.67435,0.63702 -25.26031,-0.92657 -37.92755,-0.76808 z"
     id="path5"
     style="stroke-width:1.01598" />
</svg>
